<svg xmlns="http://www.w3.org/2000/svg" xmlns:xlink="http://www.w3.org/1999/xlink">
  <defs>
    <symbol width="24" height="24" viewBox="0 0 24 24" id="icon-twitter">
      <path d="M21.4807 5.77792C20.8008 6.07936 20.0702 6.28312 19.3032 6.37456C20.0858 5.90536 20.6873 5.16232 20.97 4.27744C20.2375 4.71184 19.4258 5.02768 18.5626 5.19712C17.8711 4.4608 16.8857 4 15.7951 4C13.7014 4 12.0036 5.69728 12.0036 7.79152C12.0036 8.0884 12.0372 8.37808 12.102 8.65576C8.9508 8.4976 6.1572 6.988 4.28712 4.69384C3.96072 5.254 3.77376 5.9056 3.77376 6.60016C3.77376 7.9156 4.44312 9.07576 5.46048 9.75592C4.83912 9.736 4.25448 9.56536 3.74328 9.28168C3.7428 9.29752 3.7428 9.31312 3.7428 9.32944C3.7428 11.1659 5.0496 12.6983 6.78384 13.047C6.46584 13.1332 6.13104 13.1798 5.7852 13.1798C5.54064 13.1798 5.30328 13.1562 5.07168 13.1118C5.55408 14.6178 6.95424 15.7144 8.61336 15.7451C7.31568 16.7618 5.68104 17.3682 3.90456 17.3682C3.59856 17.3682 3.29688 17.3505 3 17.3152C4.67784 18.3909 6.6708 19.0182 8.81184 19.0182C15.7858 19.0182 19.5994 13.2412 19.5994 8.23144C19.5994 8.06728 19.5955 7.90336 19.5883 7.7404C20.3297 7.20616 20.9726 6.53824 21.4807 5.77792Z"/>
    </symbol>
    <symbol width="24" height="24" viewBox="0 0 24 24" id="icon-facebook">
      <path d="M12 24H14H16V14.6667H20V10.6667H16V8C16 7.64638 16.1405 7.30724 16.3905 7.05719C16.6406 6.80714 16.9797 6.66667 17.3333 6.66667H20V2.66667H16.6667C15.429 2.66667 14.242 3.15833 13.3668 4.0335C12.4917 4.90867 12 6.09566 12 7.33333V10.6667H9.33333V14.6667H12V24Z" />
    </symbol>
    <symbol width="24" height="24" viewBox="0 0 24 24" id="icon-question-mark">
      <path d="M17.6499 5.33182C17.0839 4.35382 16.1978 3.53893 15.1 2.94784C14.0028 2.35936 12.6783 2.00003 11.2407 2.00003C9.4688 1.99604 7.9966 2.41573 6.88547 2.99694C5.76992 3.57608 5.28893 4.25038 5.28893 4.25038C5.10145 4.39827 4.99571 4.61343 5.00013 4.8385C5.0052 5.06389 5.11937 5.27546 5.31265 5.416L6.85664 6.54022C7.17135 6.76929 7.62174 6.76069 7.92549 6.51999C7.92549 6.51999 8.11515 6.20835 8.70954 5.89968C9.30724 5.59304 10.0822 5.34604 11.2407 5.34272C12.2512 5.34073 13.1323 5.68354 13.7336 6.15198C14.0323 6.38405 14.2555 6.64393 14.3922 6.88167C14.5301 7.12136 14.5804 7.33089 14.5797 7.49003C14.5768 8.02776 14.4619 8.37948 14.296 8.67917C14.1695 8.90296 14.0043 9.10155 13.7916 9.29417C13.4743 9.58261 13.0441 9.84913 12.5613 10.0941C12.0781 10.3421 11.5573 10.5602 11.0311 10.8238C10.4304 11.1262 9.79485 11.5605 9.32516 12.2123C9.09102 12.5345 8.90793 12.9031 8.79165 13.292C8.67383 13.6812 8.62064 14.0893 8.62064 14.5057C8.62064 14.9499 8.62064 15.3146 8.62064 15.3146C8.62064 15.7333 8.99404 16.0728 9.45466 16.0728H11.464C11.9246 16.0728 12.298 15.7333 12.298 15.3146C12.298 15.3146 12.298 14.9499 12.298 14.5057C12.298 14.3453 12.3181 14.2418 12.3374 14.1762C12.3706 14.078 12.3892 14.0535 12.4435 13.9938C12.499 13.9371 12.6109 13.8503 12.8173 13.7465C13.1189 13.5924 13.6035 13.3842 14.1523 13.1146C14.9739 12.7062 15.9728 12.1519 16.8152 11.2372C17.2342 10.7807 17.6047 10.231 17.8603 9.59784C18.1182 8.96464 18.2574 8.25288 18.2567 7.49003C18.256 6.71721 18.0255 5.98323 17.6499 5.33182Z" />
      <path d="M10.4599 17.8766C9.20732 17.8766 8.19171 18.8002 8.19171 19.9386C8.19171 21.0767 9.20736 22 10.4599 22C11.7119 22 12.7271 21.0767 12.7271 19.9386C12.7271 18.8002 11.7119 17.8766 10.4599 17.8766Z" />
    </symbol>
  </defs>
</svg>


